<svg width="88.44" height="17.8" xmlns="http://www.w3.org/2000/svg">
 <defs>
  <style>.a{fill:#101130;}.b{fill:#f20487;}.c{fill:#fff;}</style>
  <filter id="svg_16_blur">
   <feGaussianBlur stdDeviation="0" in="SourceGraphic"/>
  </filter>
 </defs>
 <title>dark-logo</title>
 <g>
  <title>background</title>
  <rect fill="none" id="canvas_background" height="402" width="582" y="-1" x="-1"/>
 </g>
 <g>
  <title>Layer 1</title>
  <text filter="url(#svg_16_blur)" font-weight="bold" stroke="null" transform="matrix(1.2722610031275228,0,0,1.1096349788563955,11.368262669596966,11.881531468220224) " xml:space="preserve" text-anchor="start" font-family="Junction, sans-serif" font-size="16" id="svg_16" y="2.840562" x="10.270885" stroke-opacity="null" stroke-width="0" fill="#ffffff">МАГУ</text>
  <g stroke="null" id="svg_64">
   <g id="svg_21" fill="#000000" transform="matrix(0.003781281524098586,0,0,-0.003561641021291845,-7.234761184846889,25.48881642431275) ">
    <path fill="#ffffff" stroke="null" id="svg_22" d="m2712.500069,4994.942471l0,-1920l30,0l30,0l0,1261l0,1260l23,-6c50,-15 129,-79 228,-185c121,-130 177,-174 241,-190c87,-22 159,15 242,125c65,86 92,134 211,360c154,294 264,448 349,489c54,26 124,21 177,-12c88,-57 145,-140 309,-452c62,-118 132,-245 156,-281c83,-126 189,-200 267,-185c53,10 107,55 218,183c215,246 285,299 386,291c107,-9 192,-91 298,-287c72,-135 134,-230 181,-281c45,-48 143,-96 216,-105c112,-14 275,28 465,120l113,55l0,840l0,840l-2070,0l-2070,0l0,-1920zm3544,1218c8,-37 39,-63 92,-78c24,-7 44,-15 44,-19c-1,-3 -24,-17 -51,-30c-64,-29 -82,-59 -98,-161c-8,-44 -17,-80 -20,-80c-4,0 -15,41 -23,91c-19,102 -30,119 -103,156l-49,25l48,19c67,25 81,41 101,112c9,34 20,67 23,72c6,9 20,-32 36,-107z"/>
    <path fill="#ffffff" stroke="null" id="svg_23" d="m4082.500069,5268.942471l0,-276l23,6c12,3 25,6 30,6c4,0 7,122 7,270l0,270l-30,0l-30,0l0,-276z"/>
    <path fill="#ffffff" stroke="null" id="svg_24" d="m4192.500069,5265.942471l0,-269l23,-6c12,-3 25,-6 30,-6c4,0 7,117 7,260l0,259l-30,16l-30,16l0,-270z"/>
    <path fill="#ffffff" stroke="null" id="svg_25" d="m3985.500069,5507.942471c-23,-15 -23,-17 -23,-274c0,-142 3,-260 8,-262c4,-3 17,-1 30,4l22,8l0,271c0,148 -3,270 -7,269c-5,0 -18,-7 -30,-16z"/>
    <path fill="#ffffff" stroke="null" id="svg_26" d="m4302.500069,5212.942471l0,-256l30,-11l30,-10l0,238l0,237l-30,29l-30,29l0,-256z"/>
    <path fill="#ffffff" stroke="null" id="svg_27" d="m3880.500069,5417.942471l-28,-29l0,-242c0,-133 3,-242 8,-242c4,1 17,9 30,20c22,18 22,19 20,270l-3,251l-27,-28z"/>
    <path fill="#ffffff" stroke="null" id="svg_28" d="m4422.500069,5113.942471l0,-225l30,-17l30,-18l0,208l-1,208l-29,35l-30,34l0,-225z"/>
    <path fill="#ffffff" stroke="null" id="svg_29" d="m3769.500069,5272.942471l-27,-39l2,-208l3,-209l28,22l27,22l-2,226l-3,225l-28,-39z"/>
    <path fill="#ffffff" stroke="null" id="svg_30" d="m5439.500069,5237.942471c-4,-3 -7,-80 -7,-170l0,-164l28,3l27,3l3,168l2,167l-23,0c-13,0 -27,-3 -30,-7z"/>
    <path fill="#ffffff" stroke="null" id="svg_31" d="m5552.500069,5079.942471l0,-165l30,0l30,0l0,159c0,156 0,159 -22,165c-13,3 -26,6 -30,6c-5,0 -8,-74 -8,-165z"/>
    <path fill="#ffffff" stroke="null" id="svg_32" d="m5340.500069,5190.942471c-16,-12 -18,-33 -18,-180l0,-167l30,16l30,16l0,164c0,172 -3,181 -42,151z"/>
    <path fill="#ffffff" stroke="null" id="svg_33" d="m4532.500069,5008.942471c0,-170 2,-193 18,-206c42,-37 42,-38 42,149l-1,178l-29,35l-29,35l-1,-191z"/>
    <path fill="#ffffff" stroke="null" id="svg_34" d="m5662.500069,5039.942471l0,-154l30,-16l30,-16l0,152c0,144 -1,152 -22,170c-13,10 -26,18 -30,19c-5,0 -8,-70 -8,-155z"/>
    <path fill="#ffffff" stroke="null" id="svg_35" d="m3650.500069,5105.942471c-27,-38 -27,-39 -27,-209c1,-95 4,-172 8,-172c3,1 16,9 28,19c21,18 22,26 23,206c1,103 0,188 -2,190c-2,2 -15,-14 -30,-34z"/>
    <path fill="#ffffff" stroke="null" id="svg_36" d="m5234.500069,5111.942471c-21,-22 -22,-33 -22,-180c0,-86 2,-157 5,-157c3,0 17,7 30,16c25,16 25,17 25,180c0,90 -4,164 -8,164c-5,0 -18,-10 -30,-23z"/>
    <path fill="#ffffff" stroke="null" id="svg_37" d="m2952.500069,3821.942471c0,-706 -3,-1287 -7,-1290c-3,-4 -15,0 -25,10c-13,11 -18,30 -18,65c0,48 -1,49 -27,46c-24,-3 -28,-8 -31,-40c-3,-36 -5,-37 -44,-40l-42,-3l118,-72c65,-40 122,-73 127,-73c5,0 9,564 9,1340l0,1340l-30,0l-30,0l0,-1283z"/>
    <path fill="#ffffff" stroke="null" id="svg_38" d="m5772.500069,4961.942471l0,-143l30,-22l30,-23l0,144c0,137 -1,144 -23,165c-13,12 -26,22 -30,22c-4,0 -7,-64 -7,-143z"/>
    <path fill="#ffffff" stroke="null" id="svg_39" d="m3062.500069,4931.942471l0,-144l25,-11c14,-7 28,-12 30,-12c3,0 5,62 5,139c0,136 0,139 -25,155c-13,9 -27,16 -30,16c-3,0 -5,-65 -5,-143z"/>
    <path fill="#ffffff" stroke="null" id="svg_40" d="m4642.500069,4901.942471l0,-166l30,-16l30,-16l0,154l0,153l-30,29l-30,29l0,-167z"/>
    <path fill="#ffffff" stroke="null" id="svg_41" d="m5113.500069,5010.942471c-21,-22 -22,-31 -20,-170c1,-80 5,-146 9,-146c4,0 18,8 30,18c21,17 23,26 24,170c1,161 -2,171 -43,128z"/>
    <path fill="#ffffff" stroke="null" id="svg_42" d="m3539.500069,4976.942471c-27,-28 -27,-29 -27,-175c0,-81 2,-147 5,-147c2,0 16,5 30,12l25,11l0,164c0,89 -1,163 -3,163c-2,0 -15,-13 -30,-28z"/>
    <path fill="#ffffff" stroke="null" id="svg_43" d="m3173.500069,4857.942471l0,-138l30,-23l29,-24l0,135l0,134l-30,26l-30,27l1,-137z"/>
    <path fill="#ffffff" stroke="null" id="svg_44" d="m5892.500069,4856.942471l0,-138l30,-17l30,-18l0,134c0,130 -1,134 -25,155c-14,12 -27,22 -30,22c-3,0 -5,-62 -5,-138z"/>
    <path fill="#ffffff" stroke="null" id="svg_45" d="m4760.500069,4831.942471c-2,-74 -2,-142 0,-150c4,-21 42,-33 52,-17c5,7 9,68 9,135c2,105 -1,123 -16,137c-41,35 -42,34 -45,-105z"/>
    <path fill="#ffffff" stroke="null" id="svg_46" d="m5005.500069,4942.942471c-22,-11 -23,-15 -23,-159l0,-148l30,10l30,11l0,149c0,82 -3,149 -7,148c-5,0 -18,-5 -30,-11z"/>
    <path fill="#ffffff" stroke="null" id="svg_47" d="m3425.500069,4914.942471c-22,-9 -23,-13 -23,-153l0,-144l30,5l30,4l0,149c0,82 -3,149 -7,148c-5,0 -18,-4 -30,-9z"/>
    <path fill="#ffffff" stroke="null" id="svg_48" d="m4872.500069,4774.942471l0,-140l30,0l30,0l0,140l0,140l-30,0l-30,0l0,-140z"/>
    <path fill="#ffffff" stroke="null" id="svg_49" d="m6804.500069,4898.942471c-17,-11 -22,-25 -22,-56c0,-23 2,-39 4,-37c6,5 46,109 43,109c-1,0 -13,-7 -25,-16z"/>
    <path fill="#ffffff" stroke="null" id="svg_50" d="m3290.500069,4768.942471c3,-129 4,-135 25,-143c14,-5 25,-4 29,3c9,13 10,222 2,254c-5,16 -14,22 -33,22l-26,0l3,-136z"/>
    <path fill="#ffffff" stroke="null" id="svg_51" d="m6002.500069,4766.942471c0,-127 1,-130 25,-146c13,-9 27,-16 30,-16c3,0 5,56 5,124l0,125l-30,21l-30,21l0,-129z"/>
    <path fill="#ffffff" stroke="null" id="svg_52" d="m6705.500069,4847.942471c-20,-13 -23,-24 -23,-81l0,-66l30,29c26,25 30,36 30,82c0,57 -3,60 -37,36z"/>
    <path fill="#ffffff" stroke="null" id="svg_53" d="m6112.500069,4686.942471c0,-118 0,-119 25,-130c14,-7 28,-12 30,-12c3,0 5,54 5,120c0,108 -2,120 -19,130c-39,20 -41,13 -41,-108z"/>
    <path fill="#ffffff" stroke="null" id="svg_54" d="m6580.500069,4784.942471c-13,-8 -16,-25 -15,-85c1,-79 10,-90 40,-57c12,13 17,37 17,85c0,69 -6,77 -42,57z"/>
    <path fill="#ffffff" stroke="null" id="svg_55" d="m6232.500069,4638.942471l0,-115l28,3l27,3l3,100c2,85 0,102 -15,112c-39,29 -43,18 -43,-103z"/>
    <path fill="#ffffff" stroke="null" id="svg_56" d="m6470.500069,4747.942471c-16,-4 -18,-17 -18,-99c0,-52 2,-94 5,-94c2,0 16,5 30,12c24,11 25,15 25,100c0,91 -1,92 -42,81z"/>
    <path fill="#ffffff" stroke="null" id="svg_57" d="m6342.500069,4629.942471c0,-109 3,-115 44,-99c13,5 16,24 16,105l0,99l-30,0l-30,0l0,-105z"/>
    <path fill="#ffffff" stroke="null" id="svg_58" d="m4057.500069,4620.942471c-63,-20 -120,-52 -252,-141c-163,-110 -247,-140 -388,-140c-74,1 -121,7 -180,24c-43,13 -86,25 -95,28c-35,10 88,-51 136,-67c81,-28 148,-33 292,-21c89,8 180,24 284,50c202,52 226,55 307,41c124,-21 310,-132 559,-333l72,-59l118,108c220,201 380,284 547,284c92,0 187,-39 355,-145c195,-123 259,-142 361,-112c43,13 135,65 127,72c-2,2 -30,-6 -63,-17c-77,-26 -131,-21 -214,21c-58,29 -105,62 -314,224c-164,126 -275,153 -434,102c-89,-28 -197,-91 -296,-173c-115,-96 -136,-110 -173,-116c-54,-11 -98,16 -292,177c-95,79 -198,157 -229,173c-67,33 -163,42 -228,20z"/>
    <path fill="#ffffff" stroke="null" id="svg_59" d="m6642.500069,3907.942471c0,-141 -43,-1339 -48,-1345c-4,-4 -124,-11 -267,-17c-405,-17 -948,14 -1183,67c-139,31 -208,81 -232,171c-29,110 -78,472 -106,800c-10,110 -20,198 -22,196c-2,-2 -8,-188 -13,-412c-8,-439 -15,-501 -64,-598c-68,-132 -211,-182 -591,-205c-339,-20 -569,-41 -714,-66c-153,-26 -349,-71 -315,-73c11,-1 130,15 265,34c135,19 346,41 470,50c124,8 275,20 335,25c343,30 588,31 838,1c205,-25 772,-52 1375,-66l262,-6l0,50l0,51l40,0l41,0l-3,688l-3,687l-32,3c-32,3 -33,2 -33,-35z"/>
    <path fill="#ffffff" stroke="null" id="svg_60" d="m3505.500069,1740.942471c-7,-10 -80,-283 -145,-538c-24,-93 -46,-168 -49,-168c-7,0 -31,85 -133,465l-64,240l-166,3l-166,2l0,-534c0,-478 2,-534 16,-540c23,-9 167,-7 181,2c10,6 13,104 15,413l3,404l99,-395c55,-217 101,-403 104,-412c4,-16 18,-18 108,-18l103,0l10,38c5,20 45,174 87,342c110,435 108,428 116,436c4,4 8,-177 7,-402l0,-409l48,-3c26,-2 72,-1 101,3l52,6l0,534l0,534l-161,3c-89,2 -163,-1 -166,-6z"/>
    <path fill="#ffffff" stroke="null" id="svg_61" d="m5515.500069,1746.942471l-363,-2l0,-541l0,-541l99,4c55,1 102,6 105,9c3,3 6,204 6,447l1,442l232,1c212,0 275,3 284,13c2,2 3,41 1,87l-3,84l-362,-3z"/>
    <path fill="#ffffff" stroke="null" id="svg_62" d="m5892.500069,1741.942471c0,-7 186,-374 327,-647l65,-124l-26,-53c-34,-70 -60,-85 -157,-91l-79,-5l0,-77l0,-77l46,-7c89,-12 147,-7 201,18c95,45 120,90 432,796l117,265l-110,3c-79,2 -112,-1 -117,-10c-4,-7 -52,-128 -106,-270c-54,-142 -101,-258 -104,-258c-7,0 -24,35 -145,303c-56,126 -104,230 -106,232c-7,7 -238,9 -238,2z"/>
    <path fill="#ffffff" stroke="null" id="svg_63" d="m4349.500069,1727.942471c-3,-10 -24,-65 -47,-123c-22,-58 -56,-143 -74,-190c-123,-316 -239,-615 -261,-669c-14,-36 -25,-69 -25,-74c0,-5 47,-8 110,-5c84,2 113,7 120,18c5,8 26,63 46,123l37,107l218,0l217,0l41,-107c22,-60 45,-115 50,-123c6,-12 31,-15 114,-15c58,0 109,3 112,7c4,4 -88,246 -205,538l-212,530l-118,0c-103,0 -118,-2 -123,-17zm202,-441c33,-89 61,-169 61,-177c0,-13 -23,-15 -140,-15c-99,0 -140,3 -140,12c0,13 117,333 132,362c11,20 11,20 18,1c4,-11 35,-93 69,-183z"/>
   </g>
  </g>
 </g>
</svg>