<?xml version="1.0" standalone="no"?>
<!DOCTYPE svg PUBLIC "-//W3C//DTD SVG 20010904//EN"
 "http://www.w3.org/TR/2001/REC-SVG-20010904/DTD/svg10.dtd">
<svg version="1.0" xmlns="http://www.w3.org/2000/svg"
 width="786.000000pt" height="787.000000pt" viewBox="0 0 786.000000 787.000000"
 preserveAspectRatio="xMidYMid meet">
<metadata>
Created by potrace 1.16, written by Peter Selinger 2001-2019
</metadata>
<g transform="translate(0.000000,787.000000) scale(0.100000,-0.100000)"
fill="#000000" stroke="none">
<path d="M1860 5030 l0 -1920 30 0 30 0 0 1261 0 1260 23 -6 c50 -15 129 -79
228 -185 121 -130 177 -174 241 -190 87 -22 159 15 242 125 65 86 92 134 211
360 154 294 264 448 349 489 54 26 124 21 177 -12 88 -57 145 -140 309 -452
62 -118 132 -245 156 -281 83 -126 189 -200 267 -185 53 10 107 55 218 183
215 246 285 299 386 291 107 -9 192 -91 298 -287 72 -135 134 -230 181 -281
45 -48 143 -96 216 -105 112 -14 275 28 465 120 l113 55 0 840 0 840 -2070 0
-2070 0 0 -1920z m3544 1218 c8 -37 39 -63 92 -78 24 -7 44 -15 44 -19 -1 -3
-24 -17 -51 -30 -64 -29 -82 -59 -98 -161 -8 -44 -17 -80 -20 -80 -4 0 -15 41
-23 91 -19 102 -30 119 -103 156 l-49 25 48 19 c67 25 81 41 101 112 9 34 20
67 23 72 6 9 20 -32 36 -107z"/>
<path d="M3230 5304 l0 -276 23 6 c12 3 25 6 30 6 4 0 7 122 7 270 l0 270 -30
0 -30 0 0 -276z"/>
<path d="M3340 5301 l0 -269 23 -6 c12 -3 25 -6 30 -6 4 0 7 117 7 260 l0 259
-30 16 -30 16 0 -270z"/>
<path d="M3133 5543 c-23 -15 -23 -17 -23 -274 0 -142 3 -260 8 -262 4 -3 17
-1 30 4 l22 8 0 271 c0 148 -3 270 -7 269 -5 0 -18 -7 -30 -16z"/>
<path d="M3450 5248 l0 -256 30 -11 30 -10 0 238 0 237 -30 29 -30 29 0 -256z"/>
<path d="M3028 5453 l-28 -29 0 -242 c0 -133 3 -242 8 -242 4 1 17 9 30 20 22
18 22 19 20 270 l-3 251 -27 -28z"/>
<path d="M3570 5149 l0 -225 30 -17 30 -18 0 208 -1 208 -29 35 -30 34 0 -225z"/>
<path d="M2917 5308 l-27 -39 2 -208 3 -209 28 22 27 22 -2 226 -3 225 -28
-39z"/>
<path d="M4587 5273 c-4 -3 -7 -80 -7 -170 l0 -164 28 3 27 3 3 168 2 167 -23
0 c-13 0 -27 -3 -30 -7z"/>
<path d="M4700 5115 l0 -165 30 0 30 0 0 159 c0 156 0 159 -22 165 -13 3 -26
6 -30 6 -5 0 -8 -74 -8 -165z"/>
<path d="M4488 5226 c-16 -12 -18 -33 -18 -180 l0 -167 30 16 30 16 0 164 c0
172 -3 181 -42 151z"/>
<path d="M3680 5044 c0 -170 2 -193 18 -206 42 -37 42 -38 42 149 l-1 178 -29
35 -29 35 -1 -191z"/>
<path d="M4810 5075 l0 -154 30 -16 30 -16 0 152 c0 144 -1 152 -22 170 -13
10 -26 18 -30 19 -5 0 -8 -70 -8 -155z"/>
<path d="M2798 5141 c-27 -38 -27 -39 -27 -209 1 -95 4 -172 8 -172 3 1 16 9
28 19 21 18 22 26 23 206 1 103 0 188 -2 190 -2 2 -15 -14 -30 -34z"/>
<path d="M4382 5147 c-21 -22 -22 -33 -22 -180 0 -86 2 -157 5 -157 3 0 17 7
30 16 25 16 25 17 25 180 0 90 -4 164 -8 164 -5 0 -18 -10 -30 -23z"/>
<path d="M2100 3857 c0 -706 -3 -1287 -7 -1290 -3 -4 -15 0 -25 10 -13 11 -18
30 -18 65 0 48 -1 49 -27 46 -24 -3 -28 -8 -31 -40 -3 -36 -5 -37 -44 -40
l-42 -3 118 -72 c65 -40 122 -73 127 -73 5 0 9 564 9 1340 l0 1340 -30 0 -30
0 0 -1283z"/>
<path d="M4920 4997 l0 -143 30 -22 30 -23 0 144 c0 137 -1 144 -23 165 -13
12 -26 22 -30 22 -4 0 -7 -64 -7 -143z"/>
<path d="M2210 4967 l0 -144 25 -11 c14 -7 28 -12 30 -12 3 0 5 62 5 139 0
136 0 139 -25 155 -13 9 -27 16 -30 16 -3 0 -5 -65 -5 -143z"/>
<path d="M3790 4937 l0 -166 30 -16 30 -16 0 154 0 153 -30 29 -30 29 0 -167z"/>
<path d="M4261 5046 c-21 -22 -22 -31 -20 -170 1 -80 5 -146 9 -146 4 0 18 8
30 18 21 17 23 26 24 170 1 161 -2 171 -43 128z"/>
<path d="M2687 5012 c-27 -28 -27 -29 -27 -175 0 -81 2 -147 5 -147 2 0 16 5
30 12 l25 11 0 164 c0 89 -1 163 -3 163 -2 0 -15 -13 -30 -28z"/>
<path d="M2321 4893 l0 -138 30 -23 29 -24 0 135 0 134 -30 26 -30 27 1 -137z"/>
<path d="M5040 4892 l0 -138 30 -17 30 -18 0 134 c0 130 -1 134 -25 155 -14
12 -27 22 -30 22 -3 0 -5 -62 -5 -138z"/>
<path d="M3908 4867 c-2 -74 -2 -142 0 -150 4 -21 42 -33 52 -17 5 7 9 68 9
135 2 105 -1 123 -16 137 -41 35 -42 34 -45 -105z"/>
<path d="M4153 4978 c-22 -11 -23 -15 -23 -159 l0 -148 30 10 30 11 0 149 c0
82 -3 149 -7 148 -5 0 -18 -5 -30 -11z"/>
<path d="M2573 4950 c-22 -9 -23 -13 -23 -153 l0 -144 30 5 30 4 0 149 c0 82
-3 149 -7 148 -5 0 -18 -4 -30 -9z"/>
<path d="M4020 4810 l0 -140 30 0 30 0 0 140 0 140 -30 0 -30 0 0 -140z"/>
<path d="M2438 4804 c3 -129 4 -135 25 -143 14 -5 25 -4 29 3 9 13 10 222 2
254 -5 16 -14 22 -33 22 l-26 0 3 -136z"/>
<path d="M5150 4802 c0 -127 1 -130 25 -146 13 -9 27 -16 30 -16 3 0 5 56 5
124 l0 125 -30 21 -30 21 0 -129z"/>
<path d="M3205 4656 c-63 -20 -120 -52 -252 -141 -163 -110 -247 -140 -388
-140 -74 1 -121 7 -180 24 -43 13 -86 25 -95 28 -35 10 88 -51 136 -67 81 -28
148 -33 292 -21 89 8 180 24 284 50 202 52 226 55 307 41 124 -21 310 -132
559 -333 l72 -59 118 108 c220 201 380 284 547 284 92 0 187 -39 355 -145 195
-123 259 -142 361 -112 43 13 135 65 127 72 -2 2 -30 -6 -63 -17 -77 -26 -131
-21 -214 21 -58 29 -105 62 -314 224 -164 126 -275 153 -434 102 -89 -28 -197
-91 -296 -173 -115 -96 -136 -110 -173 -116 -54 -11 -98 16 -292 177 -95 79
-198 157 -229 173 -67 33 -163 42 -228 20z"/>
<path d="M5790 3943 c0 -141 -43 -1339 -48 -1345 -4 -4 -124 -11 -267 -17
-405 -17 -948 14 -1183 67 -139 31 -208 81 -232 171 -29 110 -78 472 -106 800
-10 110 -20 198 -22 196 -2 -2 -8 -188 -13 -412 -8 -439 -15 -501 -64 -598
-68 -132 -211 -182 -591 -205 -339 -20 -569 -41 -714 -66 -153 -26 -349 -71
-315 -73 11 -1 130 15 265 34 135 19 346 41 470 50 124 8 275 20 335 25 343
30 588 31 838 1 205 -25 772 -52 1375 -66 l262 -6 0 50 0 51 40 0 41 0 -3 688
-3 687 -32 3 c-32 3 -33 2 -33 -35z"/>
<path d="M2653 1776 c-7 -10 -80 -283 -145 -538 -24 -93 -46 -168 -49 -168 -7
0 -31 85 -133 465 l-64 240 -166 3 -166 2 0 -534 c0 -478 2 -534 16 -540 23
-9 167 -7 181 2 10 6 13 104 15 413 l3 404 99 -395 c55 -217 101 -403 104
-412 4 -16 18 -18 108 -18 l103 0 10 38 c5 20 45 174 87 342 110 435 108 428
116 436 4 4 8 -177 7 -402 l0 -409 48 -3 c26 -2 72 -1 101 3 l52 6 0 534 0
534 -161 3 c-89 2 -163 -1 -166 -6z"/>
<path d="M4663 1782 l-363 -2 0 -541 0 -541 99 4 c55 1 102 6 105 9 3 3 6 204
6 447 l1 442 232 1 c212 0 275 3 284 13 2 2 3 41 1 87 l-3 84 -362 -3z"/>
<path d="M5040 1777 c0 -7 186 -374 327 -647 l65 -124 -26 -53 c-34 -70 -60
-85 -157 -91 l-79 -5 0 -77 0 -77 46 -7 c89 -12 147 -7 201 18 95 45 120 90
432 796 l117 265 -110 3 c-79 2 -112 -1 -117 -10 -4 -7 -52 -128 -106 -270
-54 -142 -101 -258 -104 -258 -7 0 -24 35 -145 303 -56 126 -104 230 -106 232
-7 7 -238 9 -238 2z"/>
<path d="M3497 1763 c-3 -10 -24 -65 -47 -123 -22 -58 -56 -143 -74 -190 -123
-316 -239 -615 -261 -669 -14 -36 -25 -69 -25 -74 0 -5 47 -8 110 -5 84 2 113
7 120 18 5 8 26 63 46 123 l37 107 218 0 217 0 41 -107 c22 -60 45 -115 50
-123 6 -12 31 -15 114 -15 58 0 109 3 112 7 4 4 -88 246 -205 538 l-212 530
-118 0 c-103 0 -118 -2 -123 -17z m202 -441 c33 -89 61 -169 61 -177 0 -13
-23 -15 -140 -15 -99 0 -140 3 -140 12 0 13 117 333 132 362 11 20 11 20 18 1
4 -11 35 -93 69 -183z"/>
</g>
</svg>
